<svg width="132" height="36" viewBox="0 0 132 36" fill="none" xmlns="http://www.w3.org/2000/svg">
<path d="M3.89553 18.2767C1.75516 3.2028 23.2555 -2.14762 28.0437 11.8063C29.6987 17.9829 27.697 26.4599 21.0296 30.634C16.2347 33.6359 10.066 31.598 13.2746 26.458" stroke="#657EFF" stroke-width="7" stroke-linecap="round"/>
<path d="M42.285 27.2457V5.42755H46.8979V23.4425H56.2516V27.2457H42.285ZM58.9016 27.2457V10.8821H63.44V27.2457H58.9016ZM61.1815 8.77272C60.5067 8.77272 59.9279 8.54899 59.445 8.10155C58.9691 7.64701 58.7312 7.10368 58.7312 6.47158C58.7312 5.84658 58.9691 5.31036 59.445 4.86292C59.9279 4.40837 60.5067 4.1811 61.1815 4.1811C61.8562 4.1811 62.4315 4.40837 62.9073 4.86292C63.3903 5.31036 63.6317 5.84658 63.6317 6.47158C63.6317 7.10368 63.3903 7.64701 62.9073 8.10155C62.4315 8.54899 61.8562 8.77272 61.1815 8.77272ZM80.3709 15.5483L76.2161 15.804C76.1451 15.4489 75.9924 15.1292 75.758 14.8452C75.5236 14.554 75.2147 14.3231 74.8311 14.1527C74.4547 13.9751 74.0037 13.8864 73.4782 13.8864C72.775 13.8864 72.182 14.0355 71.699 14.3338C71.2161 14.625 70.9746 15.0156 70.9746 15.5057C70.9746 15.8963 71.1309 16.2266 71.4434 16.4964C71.7559 16.7663 72.2921 16.9829 73.052 17.1463L76.0137 17.7429C77.6046 18.0696 78.7907 18.5952 79.5719 19.3196C80.3532 20.044 80.7438 20.9957 80.7438 22.1747C80.7438 23.2471 80.4277 24.1882 79.7956 24.9979C79.1706 25.8075 78.3113 26.4396 77.2175 26.8942C76.1309 27.3416 74.8773 27.5653 73.4569 27.5653C71.2907 27.5653 69.5648 27.1143 68.2793 26.2123C67.0009 25.3033 66.2516 24.0675 66.0314 22.505L70.4952 22.2706C70.6301 22.9311 70.9569 23.4354 71.4753 23.7834C71.9938 24.1243 72.6578 24.2947 73.4675 24.2947C74.263 24.2947 74.9022 24.142 75.3851 23.8366C75.8752 23.5241 76.1238 23.1229 76.1309 22.6328C76.1238 22.2209 75.9498 21.8835 75.6088 21.6207C75.2679 21.3508 74.7424 21.1449 74.0321 21.0028L71.1983 20.4382C69.6003 20.1186 68.4107 19.5646 67.6294 18.7763C66.8553 17.9879 66.4682 16.9829 66.4682 15.7614C66.4682 14.7102 66.7523 13.8047 67.3205 13.0447C67.8958 12.2848 68.7019 11.6989 69.7388 11.2869C70.7828 10.875 72.0044 10.669 73.4036 10.669C75.4703 10.669 77.0968 11.1058 78.2828 11.9794C79.476 12.853 80.1721 14.0426 80.3709 15.5483ZM91.9858 10.8821V14.2912H82.1314V10.8821H91.9858ZM84.3686 6.96164H88.907V22.2173C88.907 22.6364 88.9709 22.9631 89.0987 23.1974C89.2266 23.4247 89.4041 23.5845 89.6314 23.6768C89.8658 23.7692 90.1357 23.8153 90.4411 23.8153C90.6541 23.8153 90.8672 23.7976 91.0803 23.7621C91.2933 23.7194 91.4567 23.6875 91.5703 23.6662L92.2841 27.0433C92.0568 27.1143 91.7372 27.196 91.3253 27.2883C90.9134 27.3878 90.4126 27.4481 89.8232 27.4694C88.7294 27.5121 87.7706 27.3665 86.9467 27.0327C86.13 26.6989 85.4943 26.1804 85.0398 25.4773C84.5852 24.7741 84.3615 23.8864 84.3686 22.8139V6.96164ZM99.1609 17.7855V27.2457H94.6225V10.8821H98.9478V13.7692H99.1396C99.5018 12.8175 100.109 12.0646 100.961 11.5106C101.814 10.9496 102.847 10.669 104.061 10.669C105.198 10.669 106.189 10.9176 107.034 11.4148C107.879 11.9119 108.536 12.6221 109.005 13.5454C109.473 14.4616 109.708 15.5554 109.708 16.8267V27.2457H105.169V17.6364C105.176 16.6349 104.921 15.8537 104.402 15.2926C103.884 14.7244 103.17 14.4403 102.261 14.4403C101.65 14.4403 101.11 14.5717 100.642 14.8345C100.18 15.0973 99.8178 15.4808 99.555 15.9851C99.2994 16.4822 99.168 17.0824 99.1609 17.7855ZM112.965 27.2457V10.8821H117.365V13.7372H117.535C117.834 12.7216 118.334 11.9545 119.037 11.4361C119.741 10.9105 120.55 10.6477 121.466 10.6477C121.694 10.6477 121.939 10.6619 122.202 10.6903C122.464 10.7187 122.695 10.7578 122.894 10.8075V14.8345C122.681 14.7706 122.386 14.7138 122.01 14.6641C121.633 14.6143 121.289 14.5895 120.976 14.5895C120.309 14.5895 119.712 14.7351 119.187 15.0263C118.668 15.3104 118.256 15.7081 117.951 16.2194C117.653 16.7308 117.503 17.3203 117.503 17.9879V27.2457H112.965Z" fill="black"/>
</svg>
